<?xml version="1.0" encoding="utf-8"?>
<!-- Generator: Adobe Illustrator 26.0.0, SVG Export Plug-In . SVG Version: 6.00 Build 0)  -->
<svg version="1.1" id="Layer_1" xmlns="http://www.w3.org/2000/svg" xmlns:xlink="http://www.w3.org/1999/xlink" x="0px" y="0px"
	 viewBox="0 0 1080 780" style="enable-background:new 0 0 1080 780;" xml:space="preserve">
<style type="text/css">
	.st0{fill:#FFFFFF;}
</style>
<g>
	<circle class="st0" cx="16.4" cy="15.2" r="2.7"/>
</g>
<g>
	<circle class="st0" cx="16.4" cy="348.4" r="2.7"/>
</g>
<g>
	<circle class="st0" cx="16.4" cy="181.8" r="2.7"/>
</g>
<g>
	<circle class="st0" cx="16.4" cy="98.5" r="2.7"/>
</g>
<g>
	<circle class="st0" cx="16.4" cy="265.1" r="2.7"/>
</g>
<g>
	<circle class="st0" cx="481.8" cy="15.2" r="2.7"/>
</g>
<g>
	<circle class="st0" cx="481.8" cy="348.4" r="2.7"/>
</g>
<g>
	<circle class="st0" cx="481.8" cy="181.8" r="2.7"/>
</g>
<g>
	<circle class="st0" cx="481.8" cy="98.5" r="2.7"/>
</g>
<g>
	<circle class="st0" cx="481.8" cy="265.1" r="2.7"/>
</g>
<g>
	<circle class="st0" cx="249.1" cy="15.2" r="2.7"/>
</g>
<g>
	<circle class="st0" cx="249.1" cy="348.4" r="2.7"/>
</g>
<g>
	<circle class="st0" cx="249.1" cy="181.8" r="2.7"/>
</g>
<g>
	<circle class="st0" cx="249.1" cy="98.5" r="2.7"/>
</g>
<g>
	<circle class="st0" cx="249.1" cy="265.1" r="2.7"/>
</g>
<g>
	<circle class="st0" cx="132.7" cy="15.2" r="2.7"/>
</g>
<g>
	<circle class="st0" cx="132.7" cy="348.4" r="2.7"/>
</g>
<g>
	<circle class="st0" cx="132.7" cy="181.8" r="2.7"/>
</g>
<g>
	<circle class="st0" cx="132.7" cy="98.5" r="2.7"/>
</g>
<g>
	<circle class="st0" cx="132.7" cy="265.1" r="2.7"/>
</g>
<g>
	<circle class="st0" cx="365.5" cy="15.2" r="2.7"/>
</g>
<g>
	<circle class="st0" cx="365.5" cy="348.4" r="2.7"/>
</g>
<g>
	<circle class="st0" cx="365.5" cy="181.8" r="2.7"/>
</g>
<g>
	<circle class="st0" cx="365.5" cy="98.5" r="2.7"/>
</g>
<g>
	<circle class="st0" cx="365.5" cy="265.1" r="2.7"/>
</g>
<g>
	<circle class="st0" cx="598.2" cy="15.2" r="2.7"/>
</g>
<g>
	<circle class="st0" cx="598.2" cy="348.4" r="2.7"/>
</g>
<g>
	<circle class="st0" cx="598.2" cy="181.8" r="2.7"/>
</g>
<g>
	<circle class="st0" cx="598.2" cy="98.5" r="2.7"/>
</g>
<g>
	<circle class="st0" cx="598.2" cy="265.1" r="2.7"/>
</g>
<g>
	<circle class="st0" cx="1063.6" cy="15.2" r="2.7"/>
</g>
<g>
	<circle class="st0" cx="1063.6" cy="348.4" r="2.7"/>
</g>
<g>
	<circle class="st0" cx="1063.6" cy="181.8" r="2.7"/>
</g>
<g>
	<circle class="st0" cx="1063.6" cy="98.5" r="2.7"/>
</g>
<g>
	<circle class="st0" cx="1063.6" cy="265.1" r="2.7"/>
</g>
<g>
	<circle class="st0" cx="830.9" cy="15.2" r="2.7"/>
</g>
<g>
	<circle class="st0" cx="830.9" cy="348.4" r="2.7"/>
</g>
<g>
	<circle class="st0" cx="830.9" cy="181.8" r="2.7"/>
</g>
<g>
	<circle class="st0" cx="830.9" cy="98.5" r="2.7"/>
</g>
<g>
	<circle class="st0" cx="830.9" cy="265.1" r="2.7"/>
</g>
<g>
	<circle class="st0" cx="714.5" cy="15.2" r="2.7"/>
</g>
<g>
	<circle class="st0" cx="714.5" cy="348.4" r="2.7"/>
</g>
<g>
	<circle class="st0" cx="714.5" cy="181.8" r="2.7"/>
</g>
<g>
	<circle class="st0" cx="714.5" cy="98.5" r="2.7"/>
</g>
<g>
	<circle class="st0" cx="714.5" cy="265.1" r="2.7"/>
</g>
<g>
	<circle class="st0" cx="947.3" cy="15.2" r="2.7"/>
</g>
<g>
	<circle class="st0" cx="947.3" cy="348.4" r="2.7"/>
</g>
<g>
	<circle class="st0" cx="947.3" cy="181.8" r="2.7"/>
</g>
<g>
	<circle class="st0" cx="947.3" cy="98.5" r="2.7"/>
</g>
<g>
	<circle class="st0" cx="947.3" cy="265.1" r="2.7"/>
</g>
<g>
	<circle class="st0" cx="16.4" cy="431.6" r="2.7"/>
</g>
<g>
	<circle class="st0" cx="16.4" cy="764.8" r="2.7"/>
</g>
<g>
	<circle class="st0" cx="16.4" cy="598.2" r="2.7"/>
</g>
<g>
	<circle class="st0" cx="16.4" cy="514.9" r="2.7"/>
</g>
<g>
	<circle class="st0" cx="16.4" cy="681.5" r="2.7"/>
</g>
<g>
	<circle class="st0" cx="481.8" cy="431.6" r="2.7"/>
</g>
<g>
	<circle class="st0" cx="481.8" cy="764.8" r="2.7"/>
</g>
<g>
	<circle class="st0" cx="481.8" cy="598.2" r="2.7"/>
</g>
<g>
	<circle class="st0" cx="481.8" cy="514.9" r="2.7"/>
</g>
<g>
	<circle class="st0" cx="481.8" cy="681.5" r="2.7"/>
</g>
<g>
	<circle class="st0" cx="249.1" cy="431.6" r="2.7"/>
</g>
<g>
	<circle class="st0" cx="249.1" cy="764.8" r="2.7"/>
</g>
<g>
	<circle class="st0" cx="249.1" cy="598.2" r="2.7"/>
</g>
<g>
	<circle class="st0" cx="249.1" cy="514.9" r="2.7"/>
</g>
<g>
	<circle class="st0" cx="249.1" cy="681.5" r="2.7"/>
</g>
<g>
	<circle class="st0" cx="132.7" cy="431.6" r="2.7"/>
</g>
<g>
	<circle class="st0" cx="132.7" cy="764.8" r="2.7"/>
</g>
<g>
	<circle class="st0" cx="132.7" cy="598.2" r="2.7"/>
</g>
<g>
	<circle class="st0" cx="132.7" cy="514.9" r="2.7"/>
</g>
<g>
	<circle class="st0" cx="132.7" cy="681.5" r="2.7"/>
</g>
<g>
	<circle class="st0" cx="365.5" cy="431.6" r="2.7"/>
</g>
<g>
	<circle class="st0" cx="365.5" cy="764.8" r="2.7"/>
</g>
<g>
	<circle class="st0" cx="365.5" cy="598.2" r="2.7"/>
</g>
<g>
	<circle class="st0" cx="365.5" cy="514.9" r="2.7"/>
</g>
<g>
	<circle class="st0" cx="365.5" cy="681.5" r="2.7"/>
</g>
<g>
	<circle class="st0" cx="598.2" cy="431.6" r="2.7"/>
</g>
<g>
	<circle class="st0" cx="598.2" cy="764.8" r="2.7"/>
</g>
<g>
	<circle class="st0" cx="598.2" cy="598.2" r="2.7"/>
</g>
<g>
	<circle class="st0" cx="598.2" cy="514.9" r="2.7"/>
</g>
<g>
	<circle class="st0" cx="598.2" cy="681.5" r="2.7"/>
</g>
<g>
	<circle class="st0" cx="1063.6" cy="431.6" r="2.7"/>
</g>
<g>
	<circle class="st0" cx="1063.6" cy="764.8" r="2.7"/>
</g>
<g>
	<circle class="st0" cx="1063.6" cy="598.2" r="2.7"/>
</g>
<g>
	<circle class="st0" cx="1063.6" cy="514.9" r="2.7"/>
</g>
<g>
	<circle class="st0" cx="1063.6" cy="681.5" r="2.7"/>
</g>
<g>
	<circle class="st0" cx="830.9" cy="431.6" r="2.7"/>
</g>
<g>
	<circle class="st0" cx="830.9" cy="764.8" r="2.7"/>
</g>
<g>
	<circle class="st0" cx="830.9" cy="598.2" r="2.7"/>
</g>
<g>
	<circle class="st0" cx="830.9" cy="514.9" r="2.7"/>
</g>
<g>
	<circle class="st0" cx="830.9" cy="681.5" r="2.7"/>
</g>
<g>
	<circle class="st0" cx="714.5" cy="431.6" r="2.7"/>
</g>
<g>
	<circle class="st0" cx="714.5" cy="764.8" r="2.7"/>
</g>
<g>
	<circle class="st0" cx="714.5" cy="598.2" r="2.7"/>
</g>
<g>
	<circle class="st0" cx="714.5" cy="514.9" r="2.7"/>
</g>
<g>
	<circle class="st0" cx="714.5" cy="681.5" r="2.7"/>
</g>
<g>
	<circle class="st0" cx="947.3" cy="431.6" r="2.7"/>
</g>
<g>
	<circle class="st0" cx="947.3" cy="764.8" r="2.7"/>
</g>
<g>
	<circle class="st0" cx="947.3" cy="598.2" r="2.7"/>
</g>
<g>
	<circle class="st0" cx="947.3" cy="514.9" r="2.7"/>
</g>
<g>
	<circle class="st0" cx="947.3" cy="681.5" r="2.7"/>
</g>
</svg>
