<?xml version="1.0" encoding="utf-8"?>
<!-- Generator: Adobe Illustrator 26.0.0, SVG Export Plug-In . SVG Version: 6.00 Build 0)  -->
<svg version="1.1" id="Layer_1" xmlns="http://www.w3.org/2000/svg" xmlns:xlink="http://www.w3.org/1999/xlink" x="0px" y="0px"
	 viewBox="0 0 453.8 38.4" style="enable-background:new 0 0 453.8 38.4;" xml:space="preserve">
<g>
	<path d="M25.2,23.3c-1.8-0.9-3.5-0.9-3.8-0.9h-5.5c-0.1,0-0.2,0-0.3,0H8c0,0-0.9,0-1.8-0.4c-0.6-0.3-1.4-0.9-1.4-2.7
		c0-1.7,0.7-2.3,1.4-2.7C7.1,16.1,8,16.1,8,16.1h8c0.1,0,0.1,0,0.2,0h5.1c0.3,0,2,0,3.8-0.9c2.6-1.3,4.1-3.8,4.1-7s-1.4-5.6-4.1-7
		c-1.8-0.9-3.5-0.9-3.8-0.9H15l0,0h-4.8v4.8h3c0,0,0.1,0,0.2,0h7.9c0,0,0.9,0,1.7,0.4c0.6,0.3,1.4,0.9,1.4,2.6s-0.7,2.3-1.4,2.6
		c-0.8,0.4-1.7,0.4-1.7,0.4h-4.9c-0.2,0-0.3,0-0.4,0H8c-0.3,0-2,0-3.9,1C1.4,13.5,0,16,0,19.2c0,3.2,1.4,5.7,4.1,7
		c1.8,0.9,3.5,1,3.9,1h7.6c0.1,0,0.2,0,0.4,0h5.3c0,0,0.9,0,1.7,0.4c0.6,0.3,1.4,0.9,1.4,2.6c0,1.7-0.7,2.3-1.4,2.6
		c-0.8,0.4-1.7,0.4-1.7,0.4h-7.9c0,0-0.1,0-0.2,0h-3V38h11.1c0.3,0,2,0,3.8-0.9c2.6-1.3,4.1-3.8,4.1-7C29.2,27,27.8,24.6,25.2,23.3z
		"/>
	<rect x="0" y="0.3" width="4.8" height="4.8"/>
	<rect x="0" y="33.3" width="4.8" height="4.8"/>
</g>
<g>
	<path d="M98,18.1c1.7-1.2,2.8-3.7,2.8-7.1c-0.1-7.2-4.9-11-11.2-11H70.3v38.3h21.6c7.4-0.4,11.6-3.9,11.5-11.2
		C103.3,23.5,101.3,20.4,98,18.1z M77.9,6.6h10.7c3.1,0.1,4.6,2.1,4.7,3.9c-0.1,3.2-1.6,4.2-4.8,4.3H77.9V6.6z M90.2,32.1H77.9V21.8
		h12.4c3.5,0.1,5.6,2.7,5.7,5.1C95.9,30.5,93.7,32,90.2,32.1z"/>
	<path d="M146.3,11.1c0-7.4-4.5-11-13.4-11h-16.7v38.3h7.7V22.5h6.9l9.2,15.8h8.8l-9.6-16.7C144,20.1,146.3,16.6,146.3,11.1z
		 M134.6,15.8h-10.7V6.7h10.7c3.1,0.1,4.6,1.9,4.7,4.4C139.2,13.9,137.7,15.8,134.6,15.8z"/>
	<path d="M171.3,0.1L156,38.4h8.2l2.3-5.8h17.3l2.3,5.8h8.1L179,0.1H171.3z M169.5,24.7l5.8-14.6l5.7,14.6H169.5z"/>
	<polygon points="231.7,19.8 212.9,0.1 205.2,0.1 205.2,38.4 212.9,38.4 212.9,11.4 231.6,31.4 231.6,38.4 239.4,38.4 239.4,0.1 
		231.7,0.1 	"/>
	<path d="M267.3,0h-14.8v38.4h14.8c11.9,0,17.8-6.3,17.8-19.1C285.1,6.4,279.2,0,267.3,0z M267.3,31.2h-7.1V7.1h7.1
		c6.8,0,10.2,4.3,10.3,12C277.4,26.8,274.1,31.2,267.3,31.2z"/>
	<path d="M312.5,15.3c-8.6-1.3-8.3-8.2,0-8.2c3.1,0,5.5,1.1,7.2,3.1l5.1-5.1C320.5,1.2,317.4,0,311,0c-6,0-13.2,4.5-13.2,11.2
		c0,7.5,6,9.8,12.3,10.7c9.4,1.4,9.4,9.5,0,9.1c-4-0.3-6.9-1.5-8.6-3.5l-5.1,5.1c4.2,4,8.6,5.6,15,5.6c6.4,0,14.1-4.3,14.1-11.2
		C325.3,19.4,319.2,16.4,312.5,15.3z"/>
	<polygon points="335.4,7.2 348.2,7.2 348.2,38.4 355.9,38.4 355.9,7.2 368.6,7.2 368.6,0.1 335.4,0.1 	"/>
	<path d="M387.6,0.1l-15.3,38.3h8.2l2.3-5.8h17.4l2.3,5.8h8.1L395.3,0.1L387.6,0.1L387.6,0.1z M385.8,24.7l5.8-14.6l5.7,14.6H385.8z
		"/>
	<polygon points="435.6,17.8 450.6,0.1 442,0.1 429.2,15.3 429.2,0.1 421.6,0.1 421.6,38.4 429.2,38.4 429.2,21.8 443.8,38.4 
		453.8,38.4 	"/>
</g>
</svg>
