<?xml version="1.0" encoding="utf-8"?>
<!-- Generator: Adobe Illustrator 26.0.0, SVG Export Plug-In . SVG Version: 6.00 Build 0)  -->
<svg version="1.1" id="Layer_1" xmlns="http://www.w3.org/2000/svg" xmlns:xlink="http://www.w3.org/1999/xlink" x="0px" y="0px"
	 viewBox="0 0 196.1 636.5" style="enable-background:new 0 0 196.1 636.5;" xml:space="preserve">
<style type="text/css">
	.st0{fill:#FFFFFF;}
</style>
<g>
	<path d="M91.1,40.6c0.3,0,0.6,0,1,0H139c0,0,5.3,0.2,10.2,2.7c3.8,2,8.1,5.5,8.1,15.6s-4.3,13.6-8.1,15.6
		c-4.9,2.5-10.3,2.7-10.3,2.7h-29c-0.9-0.2-1.8-0.3-2.7-0.3H59.7c-1.9,0-12.2,0.3-22.9,5.6c-15.7,7.9-24.4,22.6-24.4,41.6
		s8.6,33.8,24.4,41.6c10.7,5.4,20.9,5.6,22.9,5.6h45c0.8,0,1.5-0.1,2.3-0.2h31.8c0,0,5.4,0.1,10.3,2.7c3.8,2,8.1,5.5,8.1,15.6
		s-4.3,13.6-8.1,15.6c-4.8,2.5-10.2,2.7-10.2,2.7h-14l0,0H96.5l0,0H59.1c-1.9,0-12,0.3-22.6,5.6c-15.5,7.8-24.1,22.4-24.1,41.2
		s8.6,33.4,24.1,41.2c10.6,5.3,20.7,5.6,22.6,5.6h30.6c0.4,0,0.8,0.1,1.2,0.1h47.4c0,0,5.4,0.2,10.3,2.7c3.8,2,8.2,5.6,8.2,15.7
		c0,10.2-4.4,13.7-8.2,15.7c-4.9,2.6-10.4,2.7-10.4,2.7H93.3c-0.6,0-1.3,0-1.9,0.1H59.1c-1.9,0-12,0.3-22.6,5.6
		c-15.5,7.8-24.1,22.4-24.1,41.2c0,18.8,8.6,33.4,24.1,41.2c10.6,5.3,20.7,5.6,22.6,5.6h14v-0.1h18c0.3,0,0.6,0,1,0H139
		c0,0,5.3,0.2,10.2,2.7c3.8,2,8.1,5.5,8.1,15.6s-4.3,13.6-8.1,15.6c-4.9,2.5-10.3,2.7-10.3,2.7h-29c-0.9-0.2-1.8-0.3-2.7-0.3H59.7
		c-1.9,0-12.2,0.3-22.9,5.6c-15.7,7.9-24.4,22.6-24.4,41.6s8.6,33.8,24.4,41.6c10.7,5.4,20.9,5.6,22.9,5.6h45c0.8,0,1.5-0.1,2.3-0.2
		h31.8c0,0,5.4,0.1,10.3,2.7c3.8,2,8.1,5.5,8.1,15.6c0,10.1-4.3,13.6-8.1,15.6c-4.8,2.5-10.2,2.7-10.2,2.7H92c-0.3,0-0.6,0-1,0H73.1
		v28.5h65.8c1.9,0,12-0.3,22.6-5.6c15.5-7.8,24.1-22.4,24.1-41.2s-8.6-33.4-24.1-41.2c-10.6-5.3-20.7-5.6-22.6-5.6h-32.4
		c-0.6-0.1-1.2-0.1-1.9-0.1H59.9c-0.1,0-5.5-0.1-10.4-2.7c-3.8-2-8.2-5.6-8.2-15.7c0-10.2,4.4-13.7,8.2-15.7
		c4.9-2.6,10.3-2.7,10.3-2.7h47.3c0.4,0,0.8,0,1.2-0.1h30.6c1.9,0,12-0.3,22.6-5.6c15.5-7.8,24.1-22.4,24.1-41.2
		c0-18.8-8.6-33.4-24.1-41.2c-10.6-5.3-20.7-5.6-22.6-5.6h-14v-0.1H107c-0.3,0-0.6,0-1,0H59.1c0,0-5.3-0.2-10.2-2.7
		c-3.8-2-8.1-5.5-8.1-15.6c0-10.1,4.3-13.6,8.1-15.6c4.9-2.6,10.3-2.7,10.3-2.7h31.9c0.8,0.1,1.5,0.2,2.3,0.2h45
		c1.9,0,12.2-0.3,22.8-5.6c15.7-7.9,24.4-22.6,24.4-41.6s-8.6-33.8-24.4-41.6c-10.7-5.4-20.9-5.6-22.8-5.6H91
		c-0.9,0-1.8,0.1-2.7,0.3h-29c0,0-5.4-0.2-10.3-2.7c-3.8-2-8.1-5.5-8.1-15.6c0-10.1,4.3-13.6,8.1-15.6c4.8-2.5,10.2-2.7,10.2-2.7h14
		l0,0H139c1.9,0,12-0.3,22.6-5.6c15.5-7.8,24.1-22.4,24.1-41.2c0-18.8-8.6-33.4-24.1-41.2c-10.6-5.3-20.7-5.6-22.6-5.6h-32.4
		c-0.6-0.1-1.2-0.1-1.9-0.1H59.9c-0.1,0-5.5-0.1-10.4-2.7c-3.8-2-8.2-5.6-8.2-15.7c0-10.2,4.4-13.7,8.2-15.7
		c4.9-2.6,10.3-2.7,10.3-2.7h47.3c0.4,0,0.8,0,1.2-0.1h30.6c1.9,0,12-0.3,22.6-5.6c15.5-7.8,24.1-22.4,24.1-41.2
		s-8.6-33.4-24.1-41.2c-10.6-5.3-20.7-5.6-22.6-5.6h-37.4l0,0H73.1v28.4h18V40.6z"/>
	<rect x="12.2" y="12.2" width="28.4" height="28.4"/>
	<rect x="12.2" y="599.5" width="28.4" height="28.4"/>
</g>
</svg>
